<svg width="93" height="100" viewBox="0 0 93 100" fill="none" xmlns="http://www.w3.org/2000/svg">
<path d="M16.5801 95.9796H89.3779V26.4998H88.2498C81.6969 26.4998 75.1413 26.4998 68.5884 26.4998C66.758 26.4998 66.2603 26.0024 66.2603 24.1704C66.2603 19.6524 66.2603 15.1372 66.2603 10.6193C66.2603 10.3789 66.2493 10.1357 66.2714 9.89529C66.3571 8.97236 67.0041 8.32851 67.864 8.29812C68.7626 8.26772 69.5091 8.92815 69.5533 9.89529C69.6031 11.031 69.5727 12.1695 69.5727 13.3079C69.5727 16.5465 69.5727 19.7878 69.5727 23.1065H86.9365C86.6987 22.8385 86.5217 22.6091 86.3171 22.4074C80.1734 16.2619 74.0325 10.1108 67.864 3.99017C67.5184 3.64752 66.9405 3.35185 66.4677 3.35185C50.1187 3.31869 33.7669 3.32422 17.4151 3.32422H16.5801V4.59533C16.5801 14.3193 16.5801 24.0405 16.5801 33.7645C16.5801 34.0408 16.5884 34.3171 16.5801 34.5907C16.5386 35.7098 15.8667 36.4366 14.899 36.42C13.9645 36.4034 13.323 35.7043 13.276 34.6404C13.2649 34.4 13.2732 34.1569 13.2732 33.9165C13.2732 23.4353 13.2732 12.9542 13.2732 2.47037C13.2732 0.478047 13.7267 0.0138164 15.6787 0.0138164C32.9263 0.0138164 50.174 0.0193429 67.4216 0C68.2815 0 68.898 0.262511 69.5063 0.873195C76.9523 8.35338 84.4148 15.8115 91.8967 23.253C92.5078 23.8609 92.7732 24.4771 92.7732 25.3365C92.7566 49.1974 92.7594 73.0555 92.7594 96.9164C92.7594 98.8672 92.2921 99.326 90.3041 99.326C65.4336 99.326 40.5631 99.326 15.6925 99.326C13.7322 99.326 13.276 98.8617 13.2732 96.8805C13.2732 95.0539 13.2649 93.2246 13.2732 91.3981C13.2815 90.1685 13.8898 89.4279 14.8852 89.403C15.9165 89.3782 16.569 90.1436 16.5773 91.4258C16.5884 92.9041 16.5773 94.3852 16.5773 95.9769L16.5801 95.9796Z" fill="black"/>
<path d="M24.1211 39.7415C28.5339 39.8106 33.3255 41.405 37.4895 44.7126C37.9844 45.105 38.4517 45.8843 38.4517 46.4839C38.4545 47.8489 36.8619 48.3684 35.6619 47.4262C33.2896 45.572 30.6601 44.2816 27.7321 43.5769C16.3516 40.8385 4.88822 48.8078 3.50576 60.4246C2.03482 72.782 11.7867 83.2852 24.2372 82.7546C35.554 82.2711 44.341 71.8729 42.9253 60.6346C42.8396 59.9521 42.7207 59.2723 42.6184 58.5926C42.447 57.4403 42.9198 56.6472 43.8792 56.4759C44.8774 56.299 45.6018 56.8102 45.8423 57.9736C47.2165 64.6331 45.9889 70.7897 42.0599 76.3411C36.5577 84.1114 26.9689 87.6539 17.7092 85.4295C8.66512 83.2576 1.68921 75.6365 0.26804 66.3684C-1.87201 52.4166 9.05222 39.7443 24.1211 39.736V39.7415Z" fill="black"/>
<path d="M84.4705 81.108C84.476 86.5682 80.0107 91.042 74.5499 91.0503C69.092 91.0558 64.61 86.5876 64.6045 81.1329C64.599 75.6726 69.0671 71.1989 74.5251 71.1934C79.9913 71.1878 84.4622 75.6478 84.4677 81.108H84.4705ZM74.4974 87.7399C78.1527 87.7564 81.1526 84.7832 81.1581 81.1356C81.1637 77.5213 78.2301 74.5425 74.6301 74.5038C70.9666 74.4623 67.9473 77.4107 67.9169 81.0555C67.8892 84.7141 70.8505 87.7233 74.4974 87.7399Z" fill="black"/>
<path d="M23.2679 68.6673C27.1471 64.4423 30.9212 60.3278 34.6953 56.2132C36.4677 54.2817 38.2261 52.3391 40.0095 50.4187C40.9192 49.4405 42.0832 49.4377 42.7523 50.3689C43.2832 51.1095 43.1615 51.8749 42.3403 52.773C39.3155 56.0806 36.2824 59.38 33.252 62.6848C30.4788 65.7079 27.7056 68.7336 24.9351 71.7594C23.5582 73.2627 22.7564 73.2378 21.4292 71.6434C18.9352 68.6507 16.4219 65.6747 13.9639 62.6517C13.6044 62.2095 13.2727 61.516 13.3584 61.0103C13.4413 60.5157 13.9915 59.952 14.4837 59.7115C15.2192 59.3496 15.8689 59.7944 16.3694 60.3941C18.1334 62.5135 19.8974 64.6329 21.6642 66.7524C22.1675 67.3575 22.6762 67.9599 23.2679 68.6673Z" fill="black"/>
<path d="M58.0833 33.121C63.3256 33.121 68.5707 33.121 73.813 33.121C74.1227 33.121 74.4406 33.0906 74.742 33.1459C75.6323 33.3117 76.1715 33.8616 76.1715 34.7762C76.1715 35.6909 75.6295 36.238 74.7392 36.4038C74.4379 36.459 74.1199 36.4287 73.8102 36.4287C63.2537 36.4287 52.7 36.4287 42.1435 36.4287C41.7979 36.4287 41.4412 36.4646 41.1122 36.3844C40.2827 36.1855 39.7795 35.6411 39.7822 34.7735C39.7822 33.903 40.2827 33.3587 41.115 33.1625C41.444 33.0851 41.8006 33.121 42.1463 33.121C47.4577 33.121 52.7719 33.121 58.0833 33.121Z" fill="black"/>
<path d="M57.9268 43.0521C52.5794 43.0521 47.232 43.0466 41.8874 43.0576C41.0801 43.0576 40.3722 42.925 39.963 42.1347C39.4487 41.1399 40.0377 39.9655 41.1685 39.7721C41.5058 39.7141 41.857 39.7417 42.1998 39.7417C52.7204 39.7417 63.2437 39.7417 73.7643 39.7417C73.9357 39.7417 74.1099 39.7389 74.2813 39.7417C75.4343 39.7721 76.1559 40.38 76.1863 41.3444C76.2168 42.3447 75.4675 43.0438 74.2758 43.0438C68.8261 43.0548 63.3737 43.0493 57.924 43.0493L57.9268 43.0521Z" fill="black"/>
<path d="M45.6659 16.569C50.6345 16.569 55.6003 16.569 60.5689 16.569C60.8786 16.569 61.1965 16.5386 61.4979 16.5939C62.3882 16.7597 62.9274 17.3096 62.9274 18.2242C62.9274 19.1389 62.3854 19.686 61.4951 19.8518C61.1937 19.907 60.8758 19.8766 60.5661 19.8766C50.5626 19.8766 40.5591 19.8766 30.5556 19.8766C30.21 19.8766 29.8533 19.9126 29.5243 19.8324C28.6948 19.6335 28.1916 19.0891 28.1943 18.2214C28.1943 17.351 28.6948 16.8067 29.527 16.6105C29.8561 16.5331 30.2127 16.569 30.5583 16.569C35.596 16.569 40.631 16.569 45.6687 16.569H45.6659Z" fill="black"/>
<path d="M61.2729 49.6731C56.9596 49.6731 52.6491 49.6814 48.3358 49.6676C46.7957 49.6621 45.8418 48.3302 46.663 47.2414C47.0224 46.7634 47.8602 46.4042 48.4851 46.3986C56.6251 46.3434 64.7678 46.3627 72.9077 46.3627C73.3916 46.3627 73.8727 46.3517 74.3565 46.3655C75.4819 46.4014 76.2035 47.0673 76.1897 48.04C76.1759 49.0127 75.457 49.6648 74.3123 49.6676C69.9658 49.6814 65.6194 49.6731 61.2729 49.6731Z" fill="black"/>
<path d="M51.2928 86.0874C49.2219 86.0874 47.1537 86.0957 45.0856 86.0846C43.8441 86.0791 43.1114 85.474 43.0865 84.4709C43.0616 83.4347 43.8247 82.7825 45.1104 82.7798C49.2827 82.7742 53.4578 82.7715 57.63 82.7798C58.8632 82.7798 59.6042 83.396 59.6291 84.3908C59.654 85.4215 58.8853 86.0791 57.6052 86.0846C55.5011 86.0929 53.3969 86.0846 51.2928 86.0846V86.0874Z" fill="black"/>
</svg>
