<svg width="124" height="124" viewBox="0 0 124 124" fill="none" xmlns="http://www.w3.org/2000/svg">
<path d="M123.588 37.8082C123.235 39.7321 122.991 41.6861 122.508 43.5769C120.734 50.5306 117.122 56.3987 111.718 61.1361C110.859 61.8899 110.499 62.6408 110.524 63.7927C110.599 67.7249 110.539 71.6571 110.56 75.5893C110.566 76.8106 110.27 77.8419 109.048 78.3364C107.832 78.831 106.879 78.3063 106.022 77.4499C103.409 74.8354 100.775 72.2421 98.1799 69.6126C97.6518 69.0789 97.2023 68.8768 96.4117 69.0638C91.3065 70.2821 86.1167 70.086 80.927 69.9021C74.5454 69.6759 68.6587 67.8365 63.3543 64.3265C54.7369 58.6242 49.354 50.6934 47.8242 40.4589C45.9264 27.7516 49.9726 17.0345 59.5736 8.50369C65.0107 3.67287 71.4919 1.02527 78.7274 0.211088C79.1196 0.165856 79.5058 0.0723718 79.8951 0C83.5973 0 87.2965 0 90.9987 0C91.3879 0.0723718 91.7802 0.135704 92.1664 0.214106C94.5229 0.702616 96.9639 0.943858 99.2148 1.72487C111.516 6.00084 119.385 14.4412 122.614 27.0761C123.066 28.8522 123.266 30.6917 123.582 32.504V37.8022L123.588 37.8082ZM105.726 70.3665C105.726 67.5018 105.829 64.9808 105.693 62.4689C105.593 60.6325 106.23 59.3871 107.663 58.2623C112.068 54.8066 115.228 50.3708 117.005 45.0967C120.149 35.7668 119.192 26.7926 113.77 18.5151C108.958 11.1694 102.114 6.60695 93.3733 5.34044C89.5806 4.79162 85.6822 4.87907 81.8322 4.87003C77.7286 4.86098 73.7579 5.73546 70.0436 7.49952C60.2374 12.1554 54.1636 19.7907 52.5674 30.5349C50.8838 41.8791 54.7882 51.2965 63.6168 58.5789C68.5893 62.68 74.4157 64.827 80.8938 65.0833C86.4003 65.3005 91.9069 65.5176 97.2837 63.8922C98.4424 63.5424 99.3898 64.0038 100.214 64.8421C101.954 66.6152 103.72 68.3612 105.726 70.3695V70.3665Z" fill="black"/>
<path d="M0 56.8267C0.850877 54.5169 1.37589 52.017 2.61298 49.9364C5.60915 44.9035 10.2709 42.1232 16.1305 41.9755C24.4129 41.7674 32.7014 41.9001 40.9899 41.9121C42.6133 41.9121 43.7266 42.9977 43.6723 44.3878C43.618 45.781 42.5227 46.7098 40.8361 46.7128C33.1118 46.7249 25.3875 46.7158 17.6663 46.7188C9.9963 46.7188 4.83371 51.8874 4.83069 59.5678C4.83069 71.4036 4.83069 83.2425 4.83069 95.0783C4.83069 102.729 10.0144 107.87 17.7176 107.873C22.4245 107.873 27.1315 107.894 31.8385 107.858C33.1027 107.849 33.9687 108.283 34.8377 109.254C36.5726 111.19 38.5158 112.939 40.5585 114.947C40.5585 113.509 40.5524 112.254 40.5585 111C40.5705 108.72 41.4124 107.876 43.7055 107.876C51.9126 107.87 60.1196 107.876 68.3236 107.876C75.9212 107.873 81.0988 102.689 81.1049 95.0963C81.1049 90.1208 81.1049 85.1452 81.1049 80.1697C81.1049 79.8078 81.0898 79.4429 81.132 79.0871C81.295 77.7633 82.3118 76.8225 83.5398 76.8375C84.7709 76.8526 85.7545 77.7965 85.9084 79.1323C85.9416 79.4098 85.9295 79.6932 85.9295 79.9737C85.9295 85.109 85.9416 90.2444 85.9295 95.3828C85.9024 105.358 78.5492 112.674 68.5258 112.692C61.2843 112.704 54.0428 112.692 46.8043 112.692H45.3771C45.3771 115.439 45.3801 118.074 45.3771 120.71C45.3771 121.762 44.9366 122.58 43.962 123.035C42.9723 123.493 42.0792 123.24 41.2796 122.564C41.005 122.332 40.7516 122.07 40.4951 121.817C37.7041 119.039 34.9403 116.235 32.104 113.503C31.6484 113.066 30.879 112.737 30.2484 112.728C25.9849 112.662 21.7215 112.698 17.4581 112.692C8.44842 112.677 1.75908 107.05 0.196124 98.1902C0.168968 98.0425 0.0693978 97.9068 0.00301729 97.768C0.00301729 84.126 0.00301729 70.4809 0.00301729 56.8388L0 56.8267Z" fill="black"/>
<path d="M40.9095 79.4612C32.7447 79.4612 24.5768 79.4612 16.412 79.4612C16.0107 79.4612 15.6034 79.4763 15.2081 79.419C13.9499 79.232 13.0508 78.2309 13.0508 77.0518C13.0508 75.8758 13.9499 74.8746 15.2112 74.6877C15.6064 74.6304 16.0138 74.6455 16.4151 74.6455C32.7477 74.6455 49.0803 74.6455 65.4099 74.6455C65.4914 74.6455 65.5698 74.6455 65.6513 74.6455C67.6065 74.6575 68.7712 75.5561 68.7712 77.0548C68.7712 78.5535 67.6065 79.4582 65.6483 79.4582C57.402 79.4612 49.1557 79.4582 40.9095 79.4582V79.4612Z" fill="black"/>
<path d="M36.3051 88.1276C42.9794 88.1276 49.6536 88.1246 56.3279 88.1306C58.0145 88.1306 58.9559 88.8031 59.1913 90.1118C59.4085 91.3059 58.8081 92.4006 57.6495 92.7504C57.1245 92.9102 56.5421 92.9373 55.9869 92.9373C42.7983 92.9464 29.6097 92.9463 16.4212 92.9433C14.2366 92.9433 13.0599 92.102 13.0508 90.546C13.0418 88.987 14.2306 88.1276 16.4 88.1276C23.0351 88.1276 29.6701 88.1276 36.3021 88.1276H36.3051Z" fill="black"/>
<path d="M33.191 61.1604C38.7006 61.1604 44.2132 61.1604 49.7228 61.1604C50.1241 61.1604 50.5314 61.1453 50.9267 61.2026C52.1849 61.3865 53.0841 62.3907 53.0841 63.5667C53.0841 64.7428 52.1849 65.7469 50.9267 65.9309C50.5314 65.9882 50.1241 65.9731 49.7228 65.9731C38.6222 65.9731 27.5185 65.9731 16.4179 65.9731C16.3364 65.9731 16.258 65.9731 16.1765 65.9731C14.2183 65.961 13.0566 65.0654 13.0566 63.5667C13.0566 62.068 14.2213 61.1634 16.1765 61.1604C21.849 61.1573 27.5185 61.1604 33.191 61.1604Z" fill="black"/>
<path d="M68.7748 90.5337C68.7748 91.7791 67.6312 92.9219 66.3821 92.9219C65.1359 92.9219 63.9893 91.7791 63.9863 90.5367C63.9863 89.2913 65.1299 88.1484 66.379 88.1484C67.6252 88.1484 68.7718 89.2913 68.7748 90.5337Z" fill="black"/>
<path d="M83.7448 39.3914C83.7448 38.4687 83.7086 37.5459 83.7509 36.6232C83.8474 34.6179 84.8643 33.2459 86.732 32.5071C87.2178 32.3171 87.7337 32.2055 88.2165 32.0095C90.5911 31.0415 91.9579 28.3939 91.3846 25.9092C90.7993 23.3762 88.4971 21.6 85.9354 21.7026C83.3254 21.8081 81.1922 23.729 80.8332 26.2921C80.7819 26.6479 80.7306 27.0068 80.6612 27.3596C80.3775 28.792 79.3969 29.5458 78.021 29.3951C76.8171 29.2654 75.921 28.2914 75.9602 26.9947C76.0809 23.0263 77.8279 19.9204 81.3733 18.1141C88.5785 14.4412 96.5382 19.5766 96.3058 27.6461C96.1942 31.527 93.4454 35.2934 89.6799 36.5629C88.8018 36.8584 88.485 37.2474 88.5423 38.1641C88.6238 39.4819 88.5876 40.8117 88.5574 42.1325C88.5182 43.8694 87.5134 44.9972 86.0832 44.961C84.6832 44.9248 83.769 43.8393 83.7388 42.1566C83.7237 41.2339 83.7388 40.3111 83.7388 39.3884C83.7418 39.3884 83.7448 39.3884 83.7509 39.3884L83.7448 39.3914Z" fill="black"/>
<path d="M88.5314 52.0925C88.5314 53.359 87.415 54.4506 86.1266 54.4506C84.808 54.4506 83.7489 53.3982 83.752 52.0865C83.752 50.7868 84.8321 49.7103 86.1326 49.7103C87.4089 49.7103 88.5344 50.829 88.5344 52.0895L88.5314 52.0925Z" fill="black"/>
</svg>
