<svg width="108" height="96" viewBox="0 0 108 96" fill="none" xmlns="http://www.w3.org/2000/svg">
<path d="M107.068 82.3302V94.4765C106.49 95.6574 105.532 95.9924 104.252 95.9868C90.73 95.9561 77.2105 95.9672 63.6882 95.9672C63.3754 95.9672 63.0597 95.9784 62.7497 95.9421C61.7692 95.8277 61.0206 95.0628 60.9061 94.0885C60.7972 93.1533 61.4005 92.1986 62.3558 91.9278C62.8139 91.7994 63.3167 91.7854 63.7999 91.7854C76.4144 91.777 89.0317 91.7798 101.646 91.7798H102.814V85.052H4.25836V91.7798C4.74998 91.7798 5.16339 91.7798 5.57959 91.7798C18.2639 91.7798 30.9482 91.7798 43.6352 91.7798C45.1995 91.7798 46.2135 92.6536 46.1771 93.9294C46.1436 95.18 45.1855 95.9645 43.6436 95.9645C29.9482 95.9673 16.2527 95.97 2.55725 95.9645C0.744414 95.9645 0.00977649 95.2275 0.00418992 93.4325C-0.00139664 90.0825 -0.00139664 86.7326 0.00418992 83.3799C0.0069832 81.5569 0.719276 80.8283 2.51536 80.8116C3.72485 80.8004 4.93433 80.8116 6.19131 80.8116C6.21924 80.4208 6.25556 80.15 6.25556 79.8792C6.25556 66.2338 6.26393 52.5884 6.236 38.9402C6.236 38.5243 5.99299 37.9994 5.68852 37.7119C3.40362 35.5623 2.22485 32.9578 2.23603 29.8116C2.2472 26.2858 2.22206 22.7628 2.25279 19.237C2.25837 18.6256 2.38127 17.9808 2.60473 17.4141C4.63824 12.2636 6.70528 7.12419 8.76393 1.98204C9.44549 0.281952 9.84213 0 11.6326 0C39.5822 0 67.529 0 95.4786 0C97.2076 0 97.6545 0.307077 98.2942 1.91225C100.347 7.0544 102.409 12.1966 104.445 17.3443C104.646 17.8524 104.819 18.4135 104.822 18.9523C104.853 22.7209 104.864 26.4896 104.822 30.2583C104.789 33.1644 103.632 35.6098 101.492 37.5556C100.97 38.0301 100.811 38.5075 100.811 39.1803C100.825 52.6526 100.822 66.1221 100.822 79.5944V80.8088C102.101 80.8088 103.247 80.859 104.386 80.7948C105.646 80.7223 106.548 81.1661 107.076 82.3274L107.068 82.3302ZM96.5652 80.7641V40.1183C92.4171 40.7436 89.0317 39.4483 86.3669 36.2938C82.0233 41.5001 74.4061 41.7095 69.9256 36.3245C65.962 41.2209 58.4257 41.9831 53.5291 36.3607C48.7749 41.8826 41.1995 41.3242 37.1018 36.2826C34.9733 38.8174 32.3057 40.2606 28.9482 40.2746C25.5627 40.2885 22.8812 38.8118 20.7024 36.2658C17.9762 39.5209 14.56 40.7268 10.5069 40.1322V80.7502H16.2834V79.4604C16.2834 69.3046 16.2834 59.1487 16.2834 48.99C16.2834 46.7539 16.9175 46.1174 19.1326 46.1146C27.2191 46.1146 35.3029 46.1146 43.3895 46.1146C45.6157 46.1146 46.2498 46.7483 46.2498 48.976C46.2498 59.1682 46.2498 69.3576 46.2498 79.5498C46.2498 79.949 46.2498 80.3454 46.2498 80.7613H96.5624L96.5652 80.7641ZM20.5348 50.3523V80.7474H42.0012V50.3523H20.5348ZM22.8421 20.898C22.8421 24.2033 22.8309 27.4415 22.8532 30.6798C22.856 31.0874 22.9985 31.5033 23.1298 31.8998C24.0516 34.6969 26.7471 36.3803 29.7415 36.0425C32.4621 35.7354 34.8029 33.4379 34.9454 30.5961C35.1018 27.4639 35.004 24.3177 35.0096 21.18C35.0096 21.0878 34.9258 20.9985 34.8755 20.898H22.8421ZM72.0904 20.8896C72.0904 24.2144 71.9675 27.4276 72.1267 30.624C72.2748 33.5775 74.7999 35.9057 77.6658 36.0648C80.8222 36.2407 83.4507 34.2838 84.1071 31.2689C84.1295 31.1656 84.1741 31.0651 84.1741 30.9618C84.1769 27.623 84.1769 24.287 84.1769 20.8896H72.0932H72.0904ZM39.2414 20.8729C39.2414 24.0386 39.166 27.1038 39.261 30.1662C39.3671 33.6668 42.0878 36.157 45.5347 36.076C48.8475 35.9978 51.4117 33.3179 51.4397 29.8675C51.462 27.1456 51.4453 24.4238 51.4397 21.7048C51.4397 21.4396 51.3978 21.1744 51.3726 20.8729H39.2386H39.2414ZM55.6268 20.8757C55.6268 23.8934 55.6156 26.819 55.6268 29.7446C55.6436 33.3291 58.2106 36.0341 61.6212 36.0788C65.124 36.1263 67.758 33.5273 67.8307 29.8675C67.8837 27.1121 67.8446 24.3568 67.839 21.5987C67.839 21.3698 67.7692 21.1409 67.7245 20.8757H55.6268ZM88.4702 20.8729C88.4702 24.1865 88.3585 27.3969 88.501 30.5961C88.6406 33.7283 91.4646 36.1207 94.6601 36.0788C97.8026 36.0369 100.481 33.6026 100.596 30.4816C100.708 27.4164 100.635 24.3429 100.635 21.2749C100.635 21.1493 100.56 21.0236 100.512 20.8701H88.4702V20.8729ZM6.42036 20.8729C6.42036 23.9716 6.37846 26.967 6.43153 29.9596C6.49299 33.5273 9.14939 36.1179 12.6159 36.0788C15.9901 36.0397 18.5907 33.3626 18.6158 29.8647C18.6354 27.1428 18.6214 24.4238 18.6158 21.702C18.6158 21.4368 18.5711 21.1716 18.5432 20.8701H6.41757L6.42036 20.8729ZM51.3782 16.5682V4.24883H41.1716C40.6241 8.36367 40.0822 12.4283 39.5291 16.571H51.3782V16.5682ZM55.6575 16.5598H67.5457C66.9871 12.3892 66.4368 8.30225 65.8977 4.27396H55.6575V16.5598ZM26.7471 4.24046C25.6605 8.32738 24.5739 12.4171 23.4705 16.5654H35.3085C35.856 12.4338 36.3951 8.36925 36.9453 4.24046H26.7499H26.7471ZM70.1183 4.19021C70.677 8.39159 71.2189 12.4618 71.7664 16.5766H83.6015C82.5373 12.5567 81.501 8.61771 80.4284 4.68991C80.3725 4.48054 80.0066 4.21254 79.7831 4.20975C76.6155 4.17904 73.4479 4.18742 70.1183 4.18742V4.19021ZM22.4314 4.19021C19.1438 4.19021 16.0153 4.17067 12.8896 4.22371C12.6159 4.22929 12.2248 4.64245 12.0991 4.95232C10.6243 8.55629 9.1885 12.177 7.74717 15.7977C7.6522 16.0322 7.6103 16.2891 7.51533 16.638C11.2891 16.638 14.9399 16.6492 18.5879 16.6129C18.8169 16.6129 19.1829 16.2779 19.2499 16.0322C20.3197 12.1463 21.3505 8.24921 22.4342 4.19021H22.4314ZM99.6601 16.6408C98.0037 12.4869 96.4423 8.55071 94.8529 4.62291C94.7747 4.4275 94.4562 4.20975 94.2495 4.20696C91.0875 4.18183 87.9283 4.18742 84.6434 4.18742C85.7272 8.25759 86.7691 12.2161 87.8613 16.1634C87.9199 16.3756 88.3557 16.6017 88.6266 16.6129C89.702 16.6659 90.7831 16.6352 91.8613 16.6352C94.3948 16.6352 96.9311 16.6352 99.6601 16.6352V16.6408Z" fill="black"/>
<path d="M53.5428 91.7886C54.6601 91.769 55.6098 92.6958 55.6377 93.8292C55.6657 94.9766 54.7886 95.9174 53.6489 95.9564C52.4785 95.9983 51.473 95.038 51.4785 93.8823C51.4813 92.7712 52.4338 91.8053 53.5428 91.7858V91.7886Z" fill="black"/>
<path d="M72.3939 73.1094C67.204 73.1094 62.0169 73.1094 56.827 73.1094C54.8186 73.1094 54.1203 72.4143 54.1175 70.4155C54.1147 63.1964 54.1119 55.9773 54.1175 48.7582C54.1175 46.8208 54.8242 46.1201 56.7767 46.1201C67.2236 46.1173 77.6704 46.1173 88.1201 46.1201C90.0614 46.1201 90.7765 46.832 90.7793 48.761C90.7821 56.0164 90.7849 63.269 90.7793 70.5244C90.7793 72.3808 90.0447 73.1067 88.1704 73.1094C82.9106 73.115 77.6537 73.1094 72.3939 73.1094ZM86.5615 50.3745H58.3577V68.922C60.7739 68.922 63.137 68.9555 65.4945 68.8941C65.9833 68.8801 66.5727 68.6345 66.9247 68.2967C68.8604 66.4375 70.7431 64.5224 72.6313 62.6158C73.2375 62.0044 73.9246 61.6582 74.7906 61.8704C76.3995 62.264 76.919 64.1735 75.7068 65.4297C74.6313 66.5436 73.461 67.5625 72.3325 68.6233C72.4023 68.6931 72.4693 68.7657 72.5392 68.8355H86.5559V50.3745H86.5615Z" fill="black"/>
<path d="M61.209 62.5156C61.3486 62.2643 61.5358 61.6753 61.9213 61.2845C64.5972 58.5459 67.3067 55.8408 70.0246 53.1469C70.9994 52.181 72.2229 52.1615 73.0888 53.0269C73.9212 53.8588 73.8961 55.1541 72.9547 56.1032C70.2648 58.8279 67.5553 61.5329 64.8403 64.2324C64.1671 64.9024 63.3682 65.1509 62.4576 64.7405C61.6503 64.3776 61.2425 63.7355 61.209 62.5184V62.5156Z" fill="black"/>
</svg>
