<svg width="122" height="122" viewBox="0 0 122 122" fill="none" xmlns="http://www.w3.org/2000/svg">
<path d="M121.221 100.265V108.087C120.665 108.874 120.083 109.645 119.561 110.457C119.368 110.761 119.22 111.15 119.21 111.504C119.172 113.115 119.122 114.737 119.21 116.346C119.349 118.823 118.378 120.521 116.013 121.361H4.99283C1.03032 119.775 0.0215124 118.267 0.0215124 113.94C0.0215124 110.584 0.0215124 107.231 0.0215124 103.874C0.0246748 98.8362 1.64068 94.3609 4.73036 90.4039C5.08456 89.9488 5.44508 89.4968 5.8214 89.0196C4.86319 88.5328 3.94924 88.1504 3.12385 87.6258C2.4376 87.1865 1.75452 86.6618 1.2517 86.0329C-0.395923 83.9817 -0.421233 81.3015 1.20109 79.0038C3.94291 75.1195 5.72653 70.8465 6.07439 66.1057C6.32423 62.6892 6.22303 59.241 6.1914 55.8087C6.15662 52.0413 6.76694 48.4288 8.38611 45.0091C8.44303 44.8859 8.43988 44.7342 8.48099 44.5161C7.81372 44.5161 7.22553 44.5161 6.63731 44.5161C2.51984 44.494 0.0278434 41.9908 0.0278434 37.8537C0.024681 27.4334 0.0246679 17.01 0.0341551 6.58971C0.0341551 6.00185 0.0594615 5.40135 0.179634 4.82929C0.73622 2.18077 2.55145 0.768009 4.99916 0H53.7637C57.4606 1.22945 58.8805 3.87797 58.6181 7.65165C58.5137 9.14658 58.539 10.6573 58.637 12.1522C58.6686 12.6421 58.9944 13.2774 59.3865 13.5555C61.7046 15.1958 64.0922 16.735 66.4356 18.3374C69.5094 20.4392 69.4999 24.0517 66.4197 26.1534C64.108 27.7337 61.79 29.3076 59.4403 30.831C58.792 31.2513 58.5611 31.7159 58.5833 32.4745C58.6339 34.2507 58.6086 36.0301 58.5991 37.8063C58.5769 42.054 56.1355 44.5003 51.9105 44.5161C50.6614 44.5193 49.4122 44.5161 48.2168 44.5161C48.8272 46.5673 49.7222 48.4889 49.9182 50.4769C50.2914 54.2758 50.4495 58.119 50.3673 61.937C50.2313 68.2833 51.8505 74.0007 55.5252 79.1903C57.5997 82.1233 56.632 85.8622 53.5012 87.6321C52.6284 88.1251 51.7271 88.5613 50.7563 89.067C52.8656 91.2888 54.3772 93.754 55.3133 96.5701C55.3829 96.7818 55.658 97.0568 55.8509 97.0694C56.7333 97.1232 57.6187 97.0916 58.6022 97.0916C58.6022 95.7515 58.6022 94.6105 58.6022 93.4696C58.5959 89.1365 59.3075 84.9614 61.6129 81.213C65.1674 75.4324 70.6258 72.588 77.0835 71.349C77.9658 71.1784 78.8575 71.0488 79.9865 70.8591C74.5914 67.5027 71.6061 62.9136 70.8218 56.8864C70.7807 56.5641 70.3854 56.1911 70.0597 56.0141C67.8997 54.8226 66.736 53.0274 66.7139 50.5559C66.6886 47.5945 66.6443 44.6267 66.7423 41.6685C67.0238 33.1603 72.6845 25.8057 80.7803 23.1888C84.2463 22.07 87.7914 22.2375 91.3333 22.2786C100.463 22.3829 108.546 28.8999 110.561 37.8095C111.566 42.2563 111.073 46.7822 111.026 51.2702C111.004 53.2929 109.827 54.889 108.037 55.8024C107.193 56.2354 106.956 56.7695 106.836 57.5912C106.045 62.9736 103.341 67.1487 98.8504 70.1891C98.5784 70.3724 98.3191 70.5747 97.9617 70.837C99.7327 71.191 101.374 71.4122 102.955 71.8484C110.868 74.0355 116.573 78.6625 118.438 86.9431C119.14 90.0562 118.963 93.3685 119.213 96.589C119.248 97.0284 119.356 97.5056 119.577 97.8722C120.077 98.7003 120.671 99.4714 121.228 100.268L121.221 100.265ZM46.4712 58.7669C46.3447 56.8833 46.4364 53.7638 45.883 50.7613C44.2859 42.0857 36.2312 36.0332 27.2089 36.4599C18.6292 36.8645 11.2291 43.8145 10.4417 52.4301C10.1412 55.7202 10.1887 59.0577 10.2583 62.3668C10.4069 69.2694 8.57586 75.5304 4.60386 81.1751C3.66146 82.5152 3.88916 83.5139 5.38499 84.2503C6.89979 84.9962 8.45253 85.7073 10.0559 86.2225C19.5906 89.2914 29.315 89.6801 39.147 88.0651C43.1601 87.4045 47.0752 86.3363 50.7436 84.5284C52.8435 83.4918 52.9352 82.7206 51.7366 80.7358C50.4811 78.653 49.2826 76.5039 48.3339 74.2662C46.3953 69.6992 46.1518 64.851 46.4712 58.7669ZM64.8512 22.247C64.3768 21.8835 64.0606 21.6117 63.7159 21.3778C61.1353 19.6364 58.5674 17.8697 55.9521 16.1788C54.9433 15.5277 54.5164 14.706 54.5322 13.5271C54.567 11.1567 54.5575 8.78944 54.5322 6.41904C54.5164 4.7566 53.7954 4.03916 52.1351 4.03916C36.9112 4.03284 21.6873 4.03284 6.46337 4.03916C4.81574 4.03916 4.0536 4.79137 4.0536 6.42536C4.04411 16.9689 4.04411 27.5156 4.0536 38.0591C4.0536 39.6931 4.80625 40.4327 6.45387 40.4643C7.75363 40.4896 9.0629 40.537 10.3563 40.439C10.8686 40.4011 11.4916 40.123 11.8363 39.7437C20.8366 29.8544 35.7854 29.8923 44.8172 39.829C45.1335 40.1767 45.7344 40.4264 46.2119 40.4422C48.141 40.5117 50.0763 40.4833 52.0086 40.4675C53.827 40.4517 54.5227 39.7658 54.5354 37.9612C54.5512 35.6318 54.567 33.2994 54.529 30.9701C54.5101 29.7912 54.9338 28.96 55.9363 28.3089C58.5485 26.6117 61.1164 24.8481 63.7001 23.1067C64.0448 22.8728 64.3673 22.6073 64.848 22.2438L64.8512 22.247ZM28.3157 117.325C28.6699 117.325 29.0241 117.325 29.3814 117.325C36.2818 117.325 43.1823 117.328 50.0858 117.322C51.6386 117.322 52.543 116.608 52.5336 115.217C52.5051 110.679 52.5873 106.128 52.2711 101.608C51.9864 97.5562 50.2851 94.01 47.1796 91.2383C46.6388 90.7547 46.1486 90.5745 45.3959 90.7768C33.9923 93.8394 22.5759 93.8141 11.1722 90.7705C10.467 90.5809 10.0021 90.7199 9.4835 91.1814C6.30842 94.0006 4.60071 97.6067 4.31609 101.76C4.02831 105.966 4.11053 110.198 4.05677 114.421C4.02831 116.706 4.65762 117.322 6.89978 117.322C14.0374 117.322 21.1749 117.322 28.3125 117.322L28.3157 117.325ZM88.8983 68.7669C94.7645 68.71 99.3469 66.4755 101.636 60.796C102.373 58.9661 102.661 56.9307 102.98 54.9585C103.224 53.4509 103.616 52.8504 105.106 52.6007C106.349 52.389 107.035 51.6874 107.051 50.6001C107.066 49.4592 106.418 48.7986 105.052 48.5616C103.749 48.3372 103.192 47.7651 103.028 46.4756C102.721 44.0958 101.478 42.8568 99.0971 42.7178C95.6311 42.5123 92.456 41.4693 89.5813 39.5383C89.0816 39.2032 88.7591 39.2127 88.2341 39.5193C86.9818 40.2525 85.7169 41.0458 84.3507 41.4852C82.5671 42.0572 80.7012 42.4365 78.8386 42.6704C76.3561 42.9832 75.1069 44.0357 74.7812 46.463C74.5978 47.8347 74.1044 48.3087 72.5327 48.5806C71.4575 48.767 70.8345 49.3675 70.7649 50.4705C70.6985 51.5293 71.3531 52.3321 72.4473 52.5755C74.4017 53.0116 74.661 53.3688 74.8191 55.3062C75.3726 62.1772 79.2908 68.8174 88.9014 68.77L88.8983 68.7669ZM115.083 111.317H56.5087V117.243H115.083V111.317ZM117.113 107.133V101.245H56.3822C56.4771 103.248 56.5688 105.164 56.6637 107.133H117.113ZM107.047 44.4908C107.047 43.6659 107.063 42.8379 107.047 42.013C106.877 34.8986 101.987 28.5112 95.0808 26.9119C92.399 26.2925 89.5307 26.3557 86.7446 26.3367C82.1781 26.3083 78.2883 28.0687 75.1543 31.3778C71.6788 35.0471 70.3854 39.4719 70.8345 44.8132C72.324 40.4769 75.2524 38.7892 79.3857 38.5838C82.2382 38.4416 84.7808 37.209 86.9976 35.3727C88.6263 34.0263 89.1576 34.0231 90.7957 35.3664C93.0853 37.25 95.6943 38.4605 98.6417 38.6091C102.705 38.8145 105.507 40.597 107.054 44.494L107.047 44.4908ZM102.984 76.0867C101.561 78.9248 100.226 81.7345 98.7365 84.4621C98.2748 85.3091 97.5032 86.2952 96.6683 86.5607C95.182 87.0316 94.9543 88.1662 95.0871 89.1807C95.4413 91.823 96.0864 94.4272 96.6114 97.0378H114.985C115.871 87.945 113.742 79.3199 102.98 76.0867H102.984ZM74.778 76.0393C72.2196 76.8389 70.0154 77.9387 68.1117 79.5949C62.7387 84.2724 62.3782 90.4987 62.7197 97.0315H81.1946C81.7132 94.4114 82.3204 91.7977 82.6904 89.1555C82.7948 88.4033 82.8232 87.2117 81.729 86.8736C80.3692 86.4532 79.5343 85.5777 78.9335 84.3483C77.5799 81.5923 76.1916 78.8553 74.7812 76.0393H74.778ZM92.4623 97.0315C92.0607 94.9866 91.678 93.0461 91.2922 91.096H86.4917C86.1027 93.0966 85.7263 95.0372 85.3374 97.0315H92.4623ZM82.7157 82.8565C83.9111 81.9937 84.9452 81.2447 86.0236 80.464C84.9831 79.067 83.8953 77.8471 83.092 76.4659C82.1939 74.9236 81.0048 74.6486 79.4521 75.0879C79.3035 75.129 79.1517 75.1638 78.8987 75.227C80.1668 77.7617 81.4096 80.2522 82.7157 82.8597V82.8565ZM95.0871 82.8439C96.3995 80.2143 97.6328 77.7396 98.9168 75.1669C98.24 75.0721 97.7341 74.9204 97.2376 74.9489C96.6968 74.9805 95.9441 74.9931 95.6658 75.3281C94.3123 76.9558 93.0884 78.6878 91.7602 80.464C92.8766 81.2605 93.9233 82.0095 95.0871 82.8439ZM88.8983 77.5373C90.1695 75.837 91.3428 74.2662 92.5287 72.6796H85.2615C86.4664 74.2883 87.6364 75.8528 88.8983 77.5373ZM88.8983 83.4033C88.2594 83.8552 87.7123 84.3198 87.0988 84.658C86.0331 85.2459 85.9224 85.9855 86.5612 86.9399H91.2542C91.931 85.8875 91.678 85.1669 90.6313 84.6138C90.0462 84.304 89.5339 83.8521 88.8983 83.4033Z" fill="black"/>
<path d="M29.307 18.2205C34.7116 18.2205 40.113 18.2205 45.5176 18.2205C45.9129 18.2205 46.3114 18.1984 46.7004 18.2458C47.744 18.369 48.3575 19.0169 48.4713 20.0157C48.5883 21.027 48.0887 21.7887 47.1052 22.1048C46.6687 22.247 46.1754 22.2533 45.7073 22.2533C34.7812 22.2596 23.8582 22.2596 12.932 22.2565C12.5399 22.2565 12.1351 22.2723 11.7556 22.1933C10.7025 21.9689 10.0763 21.0839 10.168 20.022C10.2534 19.0233 10.9713 18.2963 12.0339 18.2394C13.0174 18.1889 14.0041 18.2173 14.9907 18.2173C19.7628 18.2173 24.5349 18.2173 29.307 18.2173V18.2205Z" fill="black"/>
<path d="M29.3771 10.1294C34.9778 10.1294 40.5784 10.1358 46.1759 10.1263C47.1752 10.1263 48.0829 10.4107 48.2948 11.4316C48.4276 12.0732 48.2536 12.936 47.8868 13.4701C47.599 13.8873 46.8147 14.0928 46.2265 14.1465C45.0912 14.2476 43.9433 14.1781 42.7985 14.1781C32.938 14.1781 23.0807 14.1781 13.2203 14.1781C12.7871 14.1781 12.3475 14.2034 11.9206 14.137C10.7789 13.96 10.0895 13.094 10.1591 11.9878C10.2255 10.9385 10.9592 10.1832 12.1008 10.1579C14.2702 10.1105 16.4397 10.1358 18.6059 10.1326C22.1953 10.1326 25.7846 10.1326 29.3708 10.1326L29.3771 10.1294Z" fill="black"/>
<path d="M16.1692 30.3352C14.8726 30.3352 13.5761 30.3605 12.2795 30.3289C10.9671 30.2973 10.148 29.4914 10.1543 28.3062C10.1575 27.1178 10.9734 26.3213 12.2984 26.3087C14.8916 26.2834 17.488 26.2834 20.0811 26.3087C21.3524 26.3213 22.2506 27.1968 22.2411 28.322C22.2348 29.4439 21.3335 30.3005 20.0622 30.3289C18.7656 30.3573 17.469 30.3352 16.1724 30.3352H16.1692Z" fill="black"/>
</svg>
