<svg width="109" height="110" viewBox="0 0 109 110" fill="none" xmlns="http://www.w3.org/2000/svg">
<path d="M28.5928 12.2282C28.5928 9.04278 28.5928 6.08297 28.5928 3.11927C28.5967 0.560068 29.1451 0 31.6343 0C46.8223 0 62.0064 0 77.1944 0C79.6252 0 80.2086 0.575626 80.2164 2.9987C80.2242 6.00907 80.2164 9.01555 80.2164 12.2282C81.955 12.2282 83.5885 12.2243 85.222 12.2282C87.5556 12.236 88.1235 12.8427 88.1235 15.3397C88.1235 44.5566 88.1235 73.7735 88.1235 102.99V105.009C89.2086 105.009 90.1654 105.009 91.1222 105.009C96.2639 105.009 101.41 104.997 106.551 105.021C107.959 105.029 108.869 105.915 108.83 107.113C108.792 108.257 107.913 109.031 106.571 109.089C106.232 109.105 105.89 109.089 105.552 109.089C101.476 109.089 97.3996 109.089 93.3236 109.089H4.97268C0.993857 109.089 -0.141839 108.677 0.0137359 107.086C0.184868 105.375 0.375447 104.892 5.04269 104.982C10.1767 105.079 15.3184 105.005 20.6818 105.005C20.6818 104.321 20.6818 103.714 20.6818 103.107C20.6818 73.9408 20.6818 44.7705 20.6818 15.6041C20.6818 12.6832 21.1408 12.2243 24.0423 12.2243C25.4891 12.2243 26.9359 12.2243 28.585 12.2243L28.5928 12.2282ZM24.8746 16.382V104.92H38.7091C38.7091 104.301 38.7091 103.776 38.7091 103.251C38.7091 95.3751 38.7091 87.503 38.7091 79.627C38.7091 77.309 39.3197 76.6983 41.6339 76.6983C50.1244 76.6983 58.6149 76.6983 67.1053 76.6983C69.509 76.6983 70.0963 77.2895 70.0963 79.7087C70.0963 87.5847 70.0963 95.4568 70.0963 103.333C70.0963 103.85 70.0963 104.371 70.0963 104.892H83.958V16.3859H24.8746V16.382ZM76.0548 4.18107H32.7583V12.1465H76.0548V4.18107ZM42.8901 80.8522V104.939H52.2946V80.8522H42.8901ZM65.9191 104.939V80.8522H56.5146V104.939H65.9191Z" fill="black"/>
<path d="M49.4639 58.9041C49.4639 60.9927 49.4795 63.0852 49.46 65.1738C49.4445 66.9123 48.7171 67.6513 46.9747 67.6591C42.852 67.6785 38.7292 67.6785 34.6065 67.6591C32.7863 67.6513 32.0551 66.924 32.0434 65.0805C32.024 60.9499 32.0201 56.8194 32.0434 52.6889C32.0551 50.9465 32.8096 50.2114 34.5521 50.2036C38.6748 50.1842 42.7975 50.1842 46.9203 50.2036C48.7483 50.2114 49.4483 50.9387 49.46 52.7862C49.4756 54.8281 49.46 56.8661 49.46 58.908L49.4639 58.9041ZM45.349 54.3691H36.1895V63.4741H45.349V54.3691Z" fill="black"/>
<path d="M59.3496 58.8889C59.3496 56.8003 59.3302 54.7078 59.3535 52.6192C59.373 50.9623 60.1003 50.2117 61.761 50.2039C65.9304 50.1806 70.1037 50.1806 74.2731 50.2039C76.0039 50.2117 76.7545 50.9584 76.7662 52.7048C76.7934 56.8353 76.7896 60.9658 76.7662 65.0963C76.7545 66.9243 76.0117 67.6516 74.1876 67.6594C70.0648 67.6749 65.9421 67.6788 61.8194 67.6594C60.0808 67.6516 59.3652 66.9087 59.3496 65.1585C59.3302 63.0699 59.3457 60.9775 59.3457 58.8889H59.3496ZM72.6201 54.3811H63.5074V63.5055H72.6201V54.3811Z" fill="black"/>
<path d="M40.6588 41.4335C38.5741 41.4335 36.4894 41.453 34.4047 41.4258C32.8373 41.4063 32.0672 40.6829 32.0556 39.0999C32.0205 34.8255 32.0205 30.5472 32.0556 26.2728C32.0672 24.7909 32.8451 24.0053 34.3308 23.9897C38.5975 23.9469 42.8641 23.9469 47.1307 23.9897C48.7176 24.0053 49.4488 24.7754 49.4566 26.3467C49.4799 30.6211 49.4799 34.8994 49.4566 39.1738C49.4488 40.6712 48.6982 41.4024 47.2046 41.4219C45.0227 41.453 42.8408 41.4297 40.6588 41.4297V41.4335ZM36.2288 28.1397V37.2564H45.3105V28.1397H36.2288Z" fill="black"/>
<path d="M67.9262 41.4336C65.8414 41.4336 63.7567 41.4531 61.672 41.4259C60.1007 41.4064 59.3657 40.6752 59.3579 39.0922C59.3345 34.8645 59.3384 30.6368 59.3579 26.409C59.3657 24.756 60.093 24.0015 61.7654 23.9859C65.9348 23.9509 70.1081 23.9548 74.2775 23.9859C76.0121 23.9976 76.7589 24.7599 76.7706 26.5024C76.7978 30.6329 76.7939 34.7634 76.7706 38.8939C76.7589 40.7297 76.0316 41.4181 74.1841 41.4298C72.0994 41.4414 70.0147 41.4298 67.93 41.4298L67.9262 41.4336ZM72.6051 37.307V28.1437H63.5351V37.307H72.6051Z" fill="black"/>
</svg>
