<svg width="84" height="115" viewBox="0 0 84 115" fill="none" xmlns="http://www.w3.org/2000/svg">
<path d="M42.5887 0C42.9543 0.302456 43.3858 0.551005 43.6734 0.913353C44.4465 1.8896 44.2577 3.23717 43.3079 3.9948C42.379 4.73447 40.9677 4.59373 40.1946 3.68337C39.4096 2.75803 39.5114 1.42543 40.4493 0.58993C40.692 0.371323 40.9767 0.197647 41.2404 0.00299754C41.6898 0.00299754 42.1363 0.00299754 42.5857 0.00299754L42.5887 0Z" fill="black"/>
<path d="M73.3997 37.4537C78.0651 39.6428 80.2764 43.3172 79.5004 47.4767C79 50.1569 77.5827 52.2022 75.2695 53.6576C72.9772 55.098 70.4183 54.9303 67.8324 54.9153C67.5357 55.7508 67.278 56.5623 66.9664 57.3469C65.0996 62.0365 62.1422 65.9025 58.163 69.005C57.8094 69.2805 57.4468 69.8105 57.4409 70.2238C57.3899 74.9672 57.4079 79.7107 57.4109 84.4541C57.4109 84.6338 57.4468 84.8135 57.4798 85.1339C59.4425 85.1339 61.3721 85.1309 63.3048 85.1339C68.2429 85.1459 72.6266 86.7241 76.3961 89.8924C81.1484 93.8872 83.5905 99.0469 83.8122 105.237C83.8901 107.438 83.8362 109.645 83.8302 111.849C83.8272 113.996 83.0631 114.763 80.9327 114.763C62.1692 114.763 43.4087 114.763 24.6452 114.763C17.3939 114.763 10.1426 114.763 2.89432 114.763C0.757882 114.763 -0.05415 113.996 0.00278167 111.855C0.0926738 108.465 -0.0811001 105.018 0.470238 101.697C2.0014 92.4288 10.4482 85.3556 19.839 85.1519C21.9664 85.107 24.0939 85.1459 26.3562 85.1459C26.3801 84.7237 26.4161 84.3673 26.4161 84.014C26.4191 79.4951 26.4071 74.9732 26.4311 70.4544C26.4341 69.7955 26.2423 69.3853 25.6999 68.972C21.2323 65.5761 18.0831 61.219 16.3602 55.8736C16.1025 55.068 15.7219 54.9063 14.9518 54.8884C13.5046 54.8524 12.0064 54.8704 10.628 54.5021C7.00838 53.5348 4.43148 50.2677 4.23372 46.7071C4.01498 42.7572 6.05553 39.4032 9.62425 37.837C9.89093 37.7202 10.1606 37.6035 10.5052 37.4507C10.2685 37.0285 10.0377 36.6602 9.84598 36.2709C8.84218 34.2555 9.00998 32.3299 10.2175 30.4314C10.5322 29.9373 10.7509 29.2904 10.7569 28.7095C10.8018 25.2028 10.6041 21.6721 11.6258 18.2553C14.5653 8.41199 21.0855 2.44372 31.1564 0.377442C32.6306 0.0749862 33.7962 0.83861 34.024 2.15324C34.2397 3.39301 33.4307 4.43513 31.9834 4.74357C23.4676 6.55531 17.9692 11.6072 15.8358 20.07C15.2904 22.2321 15.3204 24.541 15.0507 27.1283C21.5709 23.9211 28.0401 22.0015 34.9229 21.2169C33.2629 16.9796 33.997 13.386 37.8743 10.8226C40.619 9.00792 44.1758 9.32535 46.7796 11.3856C49.6022 13.6196 50.2944 16.728 48.9071 21.211C55.7329 22.0195 62.2351 23.9151 68.4886 27.0804C68.9171 20.0131 66.9065 14.0987 61.6808 9.44811C59.005 7.0674 55.8767 5.53716 52.344 4.86936C52.1252 4.82744 51.9065 4.77354 51.6877 4.72263C50.3513 4.40819 49.5663 3.33012 49.791 2.12928C50.0307 0.856573 51.1724 0.125887 52.5717 0.350482C62.292 1.91666 70.4542 9.51699 72.348 19.1626C72.9682 22.316 72.8154 25.619 73.0401 28.8502C73.0731 29.3114 73.106 29.8564 73.3607 30.2038C74.9848 32.4228 75.0657 34.6628 73.6304 36.9866C73.5555 37.1094 73.4956 37.2441 73.3907 37.4477L73.3997 37.4537ZM64.2367 41.8289C63.4456 41.6552 62.7055 41.5384 61.9984 41.3228C61.2882 41.1042 60.599 40.8047 59.9218 40.5022C50.8158 36.4086 41.3651 35.4952 31.7047 37.855C27.5757 38.8642 23.5995 40.4992 19.3835 41.9067C19.5034 44.8983 19.3745 47.9858 19.8 50.9954C21.0765 60.0301 27.8394 67.1932 36.8495 69.3823C45.4702 71.4755 54.6752 68.0107 60.0327 60.7638C64.2397 55.071 64.7071 48.5937 64.2367 41.8319V41.8289ZM41.9644 25.3106C41.9524 25.2207 41.9404 25.1309 41.9255 25.0411C38.153 25.5082 34.3536 25.8137 30.617 26.4785C24.9538 27.4847 19.6472 29.5629 14.6852 32.4887C13.4866 33.1954 13.2799 33.8033 14.2477 34.7795C15.1346 35.6719 16.2403 36.4595 17.3939 36.9506C19.0959 37.6753 20.7319 36.9417 22.335 36.2349C31.2223 32.315 40.4842 31.2759 50.0457 32.8151C54.3036 33.5008 58.3697 34.8305 62.283 36.6482C64.9648 37.8939 67.7305 37.271 69.4654 35.1239C70.4932 33.8512 70.4093 33.3212 69.004 32.4947C60.659 27.5835 51.5949 25.3735 41.9614 25.3106H41.9644ZM30.9047 110.211H52.9253C52.9253 104.275 52.9253 98.415 52.9253 92.5576C52.9253 92.303 52.9013 92.0515 52.8803 91.6412C49.4165 93.4739 45.8118 94.4113 41.9764 94.4292C38.0931 94.4472 34.4674 93.459 30.9586 91.6592C30.9377 92.0455 30.9137 92.3 30.9137 92.5546C30.9137 98.415 30.9137 104.275 30.9137 110.211H30.9047ZM30.9047 72.1253C30.9047 76.779 30.8927 81.2948 30.9316 85.8077C30.9316 86.1222 31.2792 86.5204 31.5729 86.73C37.5387 90.9644 46.0725 90.9914 52.1402 86.8498C52.7425 86.4396 52.9432 86.0054 52.9373 85.2927C52.9043 81.2589 52.9223 77.2252 52.9193 73.1914C52.9193 72.877 52.8803 72.5626 52.8533 72.1643C45.5122 75.2218 38.2489 75.2158 30.9047 72.1283V72.1253ZM15.4762 90.4464C14.8919 90.674 14.4005 90.8237 13.9481 91.0483C5.75589 95.0671 3.76627 102.179 4.61125 110.226H15.4762V90.4464ZM79.2397 110.238C80.4502 100.993 74.8589 90.9585 68.3657 90.656V110.238H79.2397ZM20.1087 89.6828V110.223H26.3592V89.6828H20.1087ZM57.4588 110.238H63.7063V89.6977H57.4588V110.238ZM15.0178 41.7091C12.7705 41.4425 10.7928 41.5923 9.43847 43.5717C8.44966 45.0181 8.43767 46.9616 9.41749 48.426C10.8108 50.5102 12.8903 50.5971 15.0208 50.3725V41.7091H15.0178ZM68.7882 41.7031V50.3815C71.0026 50.5881 73.1031 50.4953 74.4394 48.3601C75.4223 46.7909 75.4013 45.1589 74.4035 43.6107C73.0971 41.5893 71.0865 41.4455 68.7882 41.7031ZM41.8775 14.1497C40.0707 14.1736 38.5276 15.7608 38.5695 17.5575C38.6115 19.3693 40.2025 20.8875 42.0064 20.8336C43.7773 20.7797 45.2635 19.2495 45.2575 17.4857C45.2545 15.6799 43.6784 14.1257 41.8775 14.1497Z" fill="black"/>
<path d="M41.1769 57.637C38.2944 57.5591 35.4178 56.0199 33.3803 52.9744C32.5203 51.6927 32.727 50.3511 33.8177 49.6144C34.9024 48.8837 36.1939 49.2191 37.0958 50.4679C39.7057 54.0884 44.1104 54.0824 46.7412 50.4529C47.6401 49.2131 48.9436 48.8837 50.0223 49.6264C51.107 50.372 51.2688 51.6867 50.4388 52.9953C48.623 55.8522 45.3929 57.619 41.1769 57.637Z" fill="black"/>
</svg>
