<svg width="115" height="114" viewBox="0 0 115 114" fill="none" xmlns="http://www.w3.org/2000/svg">
<path d="M88.2778 95.5036C89.5577 95.611 90.5674 95.5865 91.525 95.7982C94.0571 96.3599 95.7359 98.493 95.7697 101.105C95.8004 103.554 95.8034 106.006 95.7697 108.459C95.7267 111.607 93.3696 113.962 90.2053 113.986C86.1785 114.017 82.1487 113.995 78.1189 113.995C54.2163 113.995 30.3168 113.995 6.4142 113.995C2.11431 113.995 0.0057973 111.881 0.00272814 107.572C0.00272814 105.543 -0.00341017 103.511 0.00272814 101.482C0.0180739 97.9067 2.32301 95.6264 5.92927 95.611C6.34975 95.611 6.77022 95.611 7.36871 95.611C7.36871 95.1322 7.36564 94.6903 7.36871 94.2514C7.41167 89.8164 7.11089 85.36 8.03778 80.9711C11.3525 65.2939 20.6459 54.8925 35.8014 49.678C36.1236 49.5675 36.449 49.4693 36.8388 49.3465C36.8388 48.2171 36.8234 47.1091 36.8388 46.0012C36.8909 42.8522 39.2419 40.492 42.4001 40.4644C46.0432 40.4337 49.6893 40.4368 53.3355 40.4644C56.555 40.4889 58.8907 42.8491 58.9367 46.0779C58.952 47.1459 58.9367 48.2171 58.9367 49.3373C68.9268 52.3175 76.7378 58.1274 82.3145 66.896C87.8881 75.6646 89.0329 85.3815 88.2717 95.5067L88.2778 95.5036ZM75.5408 91.8421H71.8364V90.375C71.8364 80.6857 71.8272 70.9964 71.8517 61.307C71.8517 60.5858 71.6522 60.1223 71.0783 59.6681C67.6838 56.9765 63.9609 54.8956 59.8513 53.5052C59.5843 53.4162 59.3019 53.3763 58.9428 53.2965C58.9428 55.758 58.9551 58.0906 58.9428 60.4231C58.9213 63.8575 56.5949 66.1747 53.1421 66.1901C49.7262 66.2054 46.3133 66.1962 42.8973 66.1901C39.0854 66.1839 36.848 63.9342 36.8418 60.1009C36.8388 57.8542 36.8418 55.6107 36.8418 53.2751C36.4919 53.3671 36.274 53.4101 36.0653 53.4807C31.9435 54.8342 28.2206 56.912 24.8169 59.5914C24.1816 60.0917 23.9299 60.5919 23.933 61.4053C23.9636 71.0946 23.9514 80.7839 23.9514 90.4732C23.9514 90.9213 23.9514 91.3725 23.9514 91.8636H20.207V64.0386C12.1167 73.2583 10.2107 83.982 11.2174 95.5312H84.5734C85.5524 83.9359 83.6557 73.2215 75.5408 64.0079V91.8421ZM47.8877 99.2879C33.9599 99.2879 20.0321 99.2879 6.10421 99.2879C4.29955 99.2879 3.69493 99.8956 3.69186 101.703C3.68572 103.695 3.69186 105.687 3.69186 107.679C3.69186 109.787 4.22589 110.318 6.34361 110.318C19.5809 110.318 32.8182 110.318 46.0554 110.318C60.5971 110.318 75.1388 110.318 89.6804 110.318C91.482 110.318 92.0897 109.705 92.0959 107.903C92.102 105.911 92.0959 103.919 92.0959 101.927C92.0959 99.8219 91.5618 99.2879 89.4441 99.2879C75.593 99.2879 61.7419 99.2879 47.8908 99.2879H47.8877ZM55.2598 53.4408C55.2598 51.0653 55.2721 48.6928 55.2568 46.3173C55.2476 44.8165 54.5785 44.1443 53.0746 44.1382C49.6218 44.1259 46.169 44.1259 42.7162 44.1382C41.2092 44.1443 40.5371 44.8134 40.534 46.3142C40.5217 50.9855 40.5217 55.6598 40.534 60.331C40.5371 61.8349 41.2123 62.5071 42.7162 62.5132C46.169 62.5286 49.6218 62.5286 53.0746 62.5132C54.5785 62.5071 55.2506 61.8319 55.2598 60.3341C55.2752 58.0353 55.2629 55.7396 55.2629 53.4408H55.2598Z" fill="black"/>
<path d="M109.355 43.2636C109.073 43.7424 108.886 44.2611 108.536 44.6232C106.937 46.2744 105.285 47.8765 103.671 49.5124C102.962 50.2306 102.094 50.4822 101.274 49.9605C99.1226 48.5978 97.1062 48.7205 94.8749 49.8899C93.8191 50.4423 93.1224 50.9518 92.7019 52.0935C91.5663 55.1842 91.5111 55.1627 88.1626 55.1627C86.5145 55.1627 84.8633 55.1412 83.2151 55.1688C82.1655 55.1873 81.3215 54.7944 81.0974 53.7816C80.548 51.2956 79.035 49.9666 76.6318 49.2116C75.487 48.8525 74.6215 48.7512 73.535 49.2515C70.561 50.6173 70.5426 50.5743 68.2315 48.2694C67.0376 47.0785 65.8621 45.8693 64.6467 44.6999C63.8825 43.9633 63.6278 43.0948 64.1741 42.217C65.4877 40.1085 65.3956 38.1289 64.2416 35.9375C63.6738 34.8541 63.149 34.1206 61.9643 33.6847C58.8276 32.5277 58.9013 32.7333 58.935 29.2406C58.9504 27.5556 58.9565 25.8707 58.932 24.1857C58.9166 23.1268 59.3647 22.3626 60.3745 22.1048C62.6948 21.5125 64.1004 20.2142 64.834 17.8264C65.2237 16.5558 65.4324 15.5644 64.7756 14.4227C64.5485 14.0268 64.4319 13.5725 64.2293 13.1613C63.7107 12.0993 63.8549 11.2093 64.7327 10.3683C66.3102 8.85832 67.854 7.31146 69.3763 5.74312C70.1497 4.94821 71.0337 4.6812 71.9606 5.25206C74.0353 6.52576 75.9689 6.47358 78.1449 5.33186C79.2743 4.73951 80.0171 4.17479 80.4682 2.97474C81.5854 -0.0115458 81.6376 0.00993827 84.851 0.00993827C86.539 0.00993827 88.2271 0.0344915 89.9151 0.000730799C91.0231 -0.0207533 91.8272 0.430413 92.0819 1.49234C92.6375 3.79728 93.9664 5.13236 96.2959 5.85668C97.588 6.25874 98.6254 6.56873 99.8101 5.81985C100.194 5.57739 100.657 5.4669 101.072 5.26741C102.094 4.77634 102.962 4.91138 103.775 5.74926C105.322 7.34522 106.9 8.91356 108.49 10.4635C109.248 11.2032 109.509 12.0687 108.965 12.9495C107.658 15.058 107.738 17.0376 108.892 19.2321C109.463 20.3155 109.987 21.049 111.172 21.4726C114.217 22.5652 114.195 22.6204 114.195 25.8123C114.195 27.4973 114.168 29.1823 114.204 30.8672C114.232 32.0213 113.762 32.8315 112.651 33.1108C110.405 33.6725 109.064 34.9492 108.348 37.2388C107.931 38.5708 107.679 39.6205 108.391 40.8604C108.803 41.5755 109.021 42.4042 109.358 43.2636H109.355ZM62.6242 30.0048C63.5787 30.3854 64.4595 30.7598 65.3557 31.0882C66.2949 31.432 66.8105 32.0611 67.1205 33.0279C67.5594 34.406 68.0351 35.8055 68.7471 37.0516C69.4561 38.2946 69.4561 39.3565 68.8638 40.6118C67.8571 42.751 67.9123 42.7756 69.539 44.3961C71.3682 46.2192 71.3866 46.2591 73.8082 45.148C74.8885 44.6539 75.8062 44.6846 76.8497 45.2555C77.9853 45.8754 79.1792 46.4923 80.4253 46.7839C81.9936 47.1522 82.8499 47.9747 83.3594 49.4663C84.0592 51.5104 84.1359 51.4828 86.2935 51.4828C89.0005 51.4828 89.0343 51.4951 90.0164 48.92C90.4246 47.852 91.0875 47.2688 92.1832 46.9435C93.46 46.566 94.7644 46.1302 95.9 45.455C97.2381 44.6631 98.4075 44.6386 99.7825 45.2984C101.774 46.256 101.805 46.1946 103.37 44.6232C105.239 42.7541 105.289 42.7326 104.196 40.3786C103.656 39.2154 103.729 38.2394 104.356 37.1345C104.972 36.0449 105.537 34.8725 105.826 33.6632C106.185 32.1471 106.986 31.3092 108.437 30.8089C110.543 30.0815 110.518 30.0048 110.515 27.8042C110.515 25.1371 110.531 25.0911 108.002 24.1611C106.878 23.7468 106.292 23.0501 105.942 21.9299C105.522 20.5886 105.015 19.2474 104.337 18.0198C103.693 16.8535 103.68 15.856 104.236 14.6682C105.285 12.4277 105.233 12.4032 103.521 10.6937C101.796 8.97188 101.771 8.91663 99.5431 9.94173C98.3093 10.5095 97.275 10.4972 96.0841 9.79441C95.0099 9.1591 93.816 8.62813 92.6037 8.33963C91.1274 7.98668 90.3141 7.20097 89.82 5.79837C89.065 3.65303 88.9974 3.67758 86.7293 3.67758C84.1267 3.67758 84.1113 3.67144 83.1507 6.13291C82.8039 7.01989 82.3988 7.73194 81.3951 8.08489C79.7071 8.68031 78.0896 9.48443 76.4016 10.0829C75.7694 10.307 74.8241 10.488 74.3545 10.1811C72.0772 8.68645 70.5058 9.32176 68.9006 11.3075C68.1456 12.2436 67.9369 12.8758 68.5292 13.8457C69.5083 15.4509 69.6648 17.0376 68.4433 18.6336C68.1272 19.0479 67.8847 19.582 67.7957 20.0945C67.3415 22.7493 65.8683 24.3821 63.2042 24.9622C62.9648 25.0144 62.6641 25.4778 62.6518 25.7632C62.5935 27.1382 62.6272 28.5163 62.6272 30.0048H62.6242Z" fill="black"/>
<path d="M38.7607 69.9285H42.3056V91.8453H38.7607V69.9285Z" fill="black"/>
<path d="M49.6502 91.8855H46.1084V69.9686H49.6502V91.8855Z" fill="black"/>
<path d="M57.0153 91.8852H53.4766V69.9285H57.0153V91.8852Z" fill="black"/>
<path d="M101.303 27.5283C101.309 35.6523 94.7348 42.2786 86.6568 42.2909C78.4652 42.3062 71.8481 35.7413 71.8389 27.5896C71.8266 19.4533 78.4621 12.8669 86.6537 12.8792C94.6673 12.8914 101.297 19.5208 101.306 27.5252L101.303 27.5283ZM86.6445 16.5591C80.5369 16.5376 75.5526 21.4483 75.5219 27.5129C75.4912 33.599 80.4356 38.6048 86.491 38.6202C92.6416 38.6355 97.6137 33.6881 97.6167 27.5497C97.6198 21.5465 92.6631 16.5836 86.6445 16.5622V16.5591Z" fill="black"/>
</svg>
