<svg width="114" height="103" viewBox="0 0 114 103" fill="none" xmlns="http://www.w3.org/2000/svg">
<path d="M43.6164 0C56.7 0.207358 67.8033 4.32402 77.1614 12.9507C77.6191 13.3746 78.3422 13.5972 78.9799 13.7253C89.2808 15.7928 98.0927 20.501 104.866 28.6154C117.077 43.2433 116.586 63.4943 103.734 77.6922C102.956 78.5521 102.779 79.2687 103.078 80.3879C104.784 86.8129 106.389 93.2624 108.049 99.6996C108.281 100.602 108.381 101.429 107.6 102.109C106.837 102.773 106.053 102.478 105.251 102.16C96.7593 98.8275 88.2708 95.4976 79.7641 92.2012C79.2026 91.9847 78.507 91.8962 77.915 91.9999C63.4737 94.54 50.3169 91.7468 38.6826 82.62C37.5475 81.7296 36.4979 80.7202 35.488 79.6926C34.9815 79.1773 34.594 79.1163 33.9227 79.3846C25.5319 82.7572 17.1228 86.0963 8.71974 89.4415C8.47259 89.5391 8.22239 89.7342 7.98134 89.722C7.30092 89.6915 6.42828 89.8044 6.00417 89.4354C5.5831 89.0664 5.36646 88.1333 5.48851 87.5326C5.91873 85.3736 6.52897 83.2543 7.07513 81.1197C8.259 76.4816 9.43066 71.8435 10.645 67.2145C10.8464 66.443 10.7457 65.9185 10.1813 65.3026C5.27798 59.9387 1.88808 53.7698 0.609624 46.5702C-1.23941 36.1748 1.1619 26.6821 7.21244 18.1499C14.1753 8.33397 23.9087 2.86337 35.6406 0.744051C36.7634 0.542791 37.8954 0.387276 39.0304 0.289695C40.6964 0.146374 42.3715 0.0762346 43.6134 0H43.6164ZM9.67172 85.2394C17.6079 82.0772 25.2939 78.9882 33.0074 75.9754C33.877 75.6369 34.9327 75.5851 35.8785 75.6644C38.7162 75.9083 41.5355 76.4999 44.3701 76.567C54.8479 76.8109 64.4195 73.9598 72.6029 67.3213C82.5956 59.213 87.151 48.6743 85.5309 35.8059C84.3256 26.2247 79.5535 18.5433 71.837 12.841C60.5415 4.48869 47.821 1.85097 34.1119 4.54968C22.8651 6.76353 14.0929 12.7739 8.3597 22.846C4.23142 30.1005 2.62038 37.8489 4.25888 46.1311C5.58615 52.8458 8.80518 58.5817 13.504 63.5034C14.4682 64.5128 14.8283 65.452 14.4102 66.8639C13.5254 69.8492 12.8236 72.8864 12.0517 75.9022C11.2736 78.9455 10.4986 81.9919 9.66867 85.2364L9.67172 85.2394ZM103.686 98.1017C103.594 97.6321 103.551 97.3425 103.478 97.0589C102.059 91.5029 100.708 85.9286 99.1728 80.4031C98.6755 78.6101 98.9989 77.4422 100.28 76.0547C109.172 66.4095 112.366 55.1939 108.308 42.5572C104.567 30.9086 96.1948 23.526 84.9328 19.2233C83.9198 18.836 82.8641 18.5524 81.5094 18.1194C81.9182 18.7202 82.1196 19.0251 82.3301 19.327C86.4523 25.2306 88.936 31.7441 89.2228 38.9589C89.7263 51.5895 84.7101 61.8202 75.1293 69.837C66.1923 77.3111 55.7236 80.4885 44.1443 80.2415C43.2503 80.2232 42.3563 80.2415 41.4409 80.2415C41.4836 80.3574 41.4897 80.4427 41.5324 80.4824C41.7948 80.7019 42.0603 80.9215 42.338 81.1197C53.1636 88.8957 65.1579 91.015 78.1225 88.5663C78.8518 88.4291 79.7244 88.4901 80.4109 88.7615C86.6995 91.2498 92.9605 93.8082 99.2338 96.3392C100.662 96.9155 102.096 97.4736 103.686 98.1048V98.1017Z" fill="black"/>
<path d="M44.6034 60.6006C39.0075 60.6006 33.4116 60.6037 27.8156 60.6006C25.9056 60.6006 25.4601 60.1463 25.4571 58.2556C25.4388 46.8265 34.5039 38.2395 45.9154 38.8768C55.9386 39.4348 64.1982 48.2963 64.0915 58.3715C64.0762 59.8932 63.3927 60.5945 61.8488 60.5976C56.1003 60.6067 50.3519 60.6006 44.6034 60.6006ZM60.1767 57.0206C60.4941 51.7452 55.2094 42.8837 45.174 42.3836C36.9632 41.975 29.0575 49.0709 29.0697 57.0206H60.1767Z" fill="black"/>
<path d="M44.782 36.1538C39.4393 36.1721 35.0456 31.8054 35.0303 26.4659C35.0151 21.1387 39.4057 16.7232 44.7301 16.711C50.0331 16.6988 54.494 21.1265 54.5062 26.4141C54.5184 31.7109 50.1002 36.1386 44.782 36.1569V36.1538ZM50.9302 26.6062C50.9241 23.2427 48.12 20.4251 44.7606 20.4099C41.3341 20.3916 38.5117 23.2306 38.5453 26.6642C38.5789 30.0093 41.444 32.8331 44.7789 32.8117C48.1475 32.7904 50.9363 29.9758 50.9302 26.6062Z" fill="black"/>
</svg>
