<svg width="1920" height="598" viewBox="0 0 1920 598" fill="none" xmlns="http://www.w3.org/2000/svg">
<path d="M300.205 8.1818V590H180.886L-50.6477 254.205H-54.3409V590H-194.966V8.1818H-73.9432L155.034 343.409H159.864V8.1818H300.205ZM371.028 590V8.1818H776.71V122.386H511.653V241.705H755.971V356.193H511.653V475.795H776.71V590H371.028ZM986.667 590L817.348 8.1818H972.746L1060.53 389.432H1065.36L1165.64 8.1818H1292.35L1392.63 390.284H1397.46L1485.53 8.1818H1640.64L1471.61 590H1336.1L1231.27 237.159H1226.72L1121.89 590H986.667ZM1988.6 182.614C1986.7 161.78 1978.28 145.587 1963.31 134.034C1948.54 122.292 1927.42 116.42 1899.96 116.42C1881.78 116.42 1866.63 118.788 1854.51 123.523C1842.39 128.258 1833.29 134.792 1827.23 143.125C1821.17 151.269 1818.05 160.644 1817.86 171.25C1817.48 179.962 1819.18 187.633 1822.97 194.261C1826.95 200.89 1832.63 206.761 1840.02 211.875C1847.59 216.799 1856.68 221.155 1867.29 224.943C1877.9 228.731 1889.83 232.045 1903.09 234.886L1953.09 246.25C1981.87 252.5 2007.25 260.833 2029.22 271.25C2051.38 281.667 2069.94 294.072 2084.9 308.466C2100.06 322.86 2111.51 339.432 2119.28 358.182C2127.04 376.932 2131.02 397.955 2131.21 421.25C2131.02 457.992 2121.74 489.527 2103.37 515.852C2085 542.178 2058.58 562.348 2024.11 576.364C1989.83 590.379 1948.45 597.386 1899.96 597.386C1851.29 597.386 1808.86 590.095 1772.69 575.511C1736.51 560.928 1708.39 538.769 1688.31 509.034C1668.24 479.299 1657.92 441.705 1657.35 396.25H1792.01C1793.14 415 1798.16 430.625 1807.06 443.125C1815.97 455.625 1828.18 465.095 1843.71 471.534C1859.43 477.973 1877.61 481.193 1898.26 481.193C1917.2 481.193 1933.29 478.636 1946.55 473.523C1960 468.409 1970.32 461.307 1977.52 452.216C1984.72 443.125 1988.41 432.708 1988.6 420.966C1988.41 409.981 1985 400.606 1978.37 392.841C1971.74 384.886 1961.51 378.068 1947.69 372.386C1934.05 366.515 1916.63 361.117 1895.42 356.193L1834.62 341.989C1784.24 330.436 1744.56 311.78 1715.59 286.023C1686.61 260.076 1672.22 225.038 1672.4 180.909C1672.22 144.924 1681.87 113.39 1701.38 86.3068C1720.89 59.2235 1747.88 38.1061 1782.35 22.9545C1816.82 7.80302 1856.12 0.227251 1900.25 0.227251C1945.32 0.227251 1984.43 7.8977 2017.57 23.2386C2050.91 38.3901 2076.76 59.697 2095.13 87.1591C2113.5 114.621 2122.88 146.439 2123.26 182.614H1988.6Z" fill="#EDEEEE" fill-opacity="0.5"/>
</svg>
