<svg width="23" height="24" viewBox="0 0 23 24" fill="none" xmlns="http://www.w3.org/2000/svg">
<path d="M22.0065 23.7573L13.2168 14.9676C12.5149 15.5652 11.7078 16.0277 10.7953 16.3553C9.88286 16.6828 8.96597 16.8466 8.04463 16.8466C5.79627 16.8466 3.89334 16.0683 2.33587 14.5118C0.778622 12.9552 0 11.0535 0 8.80652C0 6.55932 0.778271 4.65593 2.33481 3.09635C3.89136 1.537 5.79311 0.757324 8.04007 0.757324C10.2873 0.757324 12.1907 1.53595 13.7502 3.09319C15.3096 4.65067 16.0893 6.55359 16.0893 8.80195C16.0893 9.77734 15.9165 10.7213 15.5709 11.6337C15.2254 12.5461 14.7718 13.3263 14.2103 13.9741L23 22.7642L22.0065 23.7573ZM8.04463 15.4428C9.90719 15.4428 11.4796 14.8016 12.762 13.5193C14.0443 12.2372 14.6855 10.6648 14.6855 8.80195C14.6855 6.93916 14.0443 5.36671 12.762 4.0846C11.4796 2.80226 9.90719 2.16109 8.04463 2.16109C6.18183 2.16109 4.60938 2.80226 3.32728 4.0846C2.04494 5.36671 1.40377 6.93916 1.40377 8.80195C1.40377 10.6648 2.04494 12.2372 3.32728 13.5193C4.60938 14.8016 6.18183 15.4428 8.04463 15.4428Z" fill="white"/>
</svg>
