<svg width="31" height="40" viewBox="0 0 31 40" fill="none" xmlns="http://www.w3.org/2000/svg">
<path d="M15.5076 19.5771C16.48 19.5771 17.3098 19.234 17.9971 18.5479C18.6848 17.8618 19.0287 17.037 19.0287 16.0735C19.0287 15.11 18.6823 14.2876 17.9895 13.6062C17.2971 12.9251 16.4647 12.5846 15.4924 12.5846C14.52 12.5846 13.6902 12.9277 13.0029 13.6138C12.3152 14.2999 11.9713 15.1246 11.9713 16.0881C11.9713 17.0516 12.3177 17.8741 13.0105 18.5555C13.7029 19.2366 14.5353 19.5771 15.5076 19.5771ZM15.5 36.7756C19.6053 33.2347 22.8509 29.6336 25.2369 25.9722C27.6228 22.3108 28.8157 19.1442 28.8157 16.4723C28.8157 12.5126 27.5507 9.24446 25.0206 6.6678C22.4905 4.0915 19.317 2.80335 15.5 2.80335C11.683 2.80335 8.50948 4.0915 5.97939 6.6678C3.4493 9.24446 2.18425 12.5126 2.18425 16.4723C2.18425 19.1442 3.37722 22.3108 5.76315 25.9722C8.14908 29.6336 11.3947 33.2347 15.5 36.7756ZM15.5 39.6807C10.367 35.1828 6.50052 30.9879 3.90053 27.096C1.30018 23.2045 0 19.6633 0 16.4723C0 11.8936 1.50459 8.11702 4.51376 5.14248C7.52257 2.16794 11.1846 0.680664 15.5 0.680664C19.8154 0.680664 23.4774 2.16794 26.4862 5.14248C29.4954 8.11702 31 11.8936 31 16.4723C31 19.6633 29.6998 23.2045 27.0995 27.096C24.4995 30.9879 20.633 35.1828 15.5 39.6807Z" fill="white"/>
</svg>
