<svg width="1458" height="242" viewBox="0 0 1458 242" fill="none" xmlns="http://www.w3.org/2000/svg">
<path d="M1523.92 118.953V93.7415C1539.83 90.0424 1550.66 80.2108 1549.69 58.6979C1549.2 39.5213 1539.34 29.3003 1523.92 25.5039V11.9732H1524.41C1553.98 11.9732 1581.6 16.159 1586.78 48.8663C1591.46 78.3613 1576.92 97.0511 1545.59 102.6C1565.3 114.768 1573.21 124.599 1581.21 144.165C1589.22 162.368 1595.76 180.669 1606.98 183.005L1607.47 188.164H1590.58C1568.13 188.164 1558.67 188.164 1549.79 172.297C1540.42 155.944 1535.73 136.28 1524.02 119.051M1695.99 84.8832C1721.27 97.5378 1746.64 112.431 1746.64 140.466C1746.64 156.82 1739.62 169.474 1725.56 177.846C1711.51 186.704 1692.28 190.89 1667.49 190.89C1651.58 190.89 1636.16 187.678 1616.93 182.908V149.227H1621.62C1632.36 166.554 1647.87 171.713 1661.93 173.563C1676.47 175.412 1703.6 170.74 1705.95 152.05C1709.26 122.166 1679.3 114.67 1649.73 101.529C1627.67 92.184 1614.1 79.0427 1614.1 58.0165C1614.1 42.539 1620.64 31.3445 1634.21 22.973C1647.78 14.9908 1665.54 10.8051 1688.09 10.8051C1696.48 10.8051 1723.22 14.1148 1733.57 15.9643V47.3088H1730.25C1717.07 21.1235 1677.25 15.4776 1662.32 33.7781C1642.21 57.6272 1675.01 73.4941 1696.09 84.6886M1524.12 11.7785V25.3092C1516.11 23.4597 1507.23 23.4597 1497.86 24.4331V95.4937C1507.23 95.9804 1516.11 95.4937 1524.12 93.6441V118.856C1523.14 117.883 1522.75 117.007 1521.78 116.033C1519.43 113.21 1517.58 107.662 1513.77 107.662H1497.86V173.563C1497.86 176.386 1499.23 177.749 1501.18 178.722L1515.24 182.908L1515.72 188.067H1437.94V182.908L1447.79 178.235C1449.65 177.262 1451.11 176.386 1451.11 174.05V24.6278C1451.11 22.2916 1450.14 20.8314 1447.79 20.4421L1437.94 17.1324V11.9732H1524.12V11.7785ZM1155.78 192.155V179.111H1156.75C1190.03 179.111 1197.55 142.218 1197.55 101.042C1197.55 59.866 1188.18 23.4597 1155.87 22.4863V9.63698H1158.22C1209.75 9.63698 1240.69 42.831 1240.69 97.0511C1240.69 151.271 1209.26 190.987 1155.87 192.35M1251.13 13.8227H1314.86V18.9819L1305.49 23.6544C1303.64 24.6278 1302.18 25.5039 1302.18 27.3534C1301.69 30.6631 1301.69 33.3887 1301.69 37.1851V116.228C1301.69 149.909 1305.01 176.094 1343.85 176.094C1377.13 176.094 1383.18 145.723 1383.18 117.688V37.1851C1383.18 33.4861 1383.18 30.6631 1382.7 27.3534C1382.7 25.5039 1381.72 24.5305 1379.38 23.6544L1370.5 19.4686L1370.01 13.8227H1418.32V18.9819L1412.27 24.1411C1410.9 25.1145 1409.44 25.9906 1409.44 28.3269V37.1851C1409.44 40.8841 1408.95 44.6805 1408.95 48.8663V115.741C1408.95 142.9 1403.78 159.643 1392.55 172.784C1381.33 185.828 1363.96 192.447 1340.04 192.447C1316.13 192.447 1289.88 186.412 1278.65 174.731C1267.43 163.05 1261.77 144.847 1261.77 120.024V28.3269C1261.77 25.9906 1260.4 25.0172 1258.94 24.1411L1250.94 18.9819V13.8227H1251.13ZM1155.58 9.63698V22.681H1154.21C1121.42 22.681 1113.42 57.7245 1113.42 98.9007C1113.42 140.077 1123.28 178.333 1155.58 179.306V192.35H1153.24C1100.73 192.35 1070.77 157.307 1070.77 102.6C1070.77 47.8928 1102.68 10.9998 1155.58 9.63698ZM823.839 182.518V168.988C826.67 169.961 829.5 170.837 832.233 170.837C842.969 170.837 852.826 167.528 856.633 163.342C860.83 159.643 862.684 164.705 856.633 169.377C851.948 173.563 839.748 181.545 823.839 182.421M823.839 138.909V130.05C830.379 124.405 837.015 117.883 839.26 113.21C844.921 102.016 840.626 89.361 833.209 93.5468C829.891 94.9096 827.158 97.2458 823.839 100.555V84.2018C835.551 75.8303 847.263 72.5207 854.29 77.6799C869.321 88.3876 850.972 115.546 833.697 130.537C829.988 133.75 826.67 136.572 823.839 138.909ZM989.173 11.9732H1055.25V17.6191C1051.54 19.0793 1040.22 19.9554 1039.83 24.1411V161.103C1039.83 174.147 1038.46 183.589 1035.63 196.147C1029.97 222.819 1000.01 235.376 976.583 241.022L975.216 235.376C1003.81 223.208 1002.45 191.474 1002.45 164.802V24.6278C1002.45 19.9554 993.077 18.9819 989.271 17.6191V11.9732H989.173ZM922.122 91.4052C930.125 92.3787 930.125 102.6 925.441 110.095C922.61 114.281 926.417 115.741 931.101 111.458C934.81 108.148 942.325 100.263 939.495 85.2726C936.177 67.5562 901.529 78.2639 883.278 97.4405C864.538 116.617 869.223 131.997 880.447 138.13C891.671 144.165 909.532 144.652 919.389 144.165C928.759 143.679 933.444 154.484 918.023 163.829C903.481 173.174 886.596 171.811 881.033 166.652C875.372 161.979 871.175 153.608 867.954 161.979C864.636 170.448 872.151 178.333 883.375 180.182C894.599 182.518 922.22 179.696 933.541 161.979C944.765 143.776 934.029 132.971 917.145 132.095C900.26 130.732 881.033 126.936 888.06 110.582C895.575 94.2282 913.826 90.5292 922.22 91.4052M613.902 84.8832C639.181 97.5378 664.069 112.431 664.069 140.466C664.069 156.82 657.041 169.474 642.987 177.846C629.421 186.704 609.706 190.89 585.306 190.89C569.397 190.89 553.879 187.678 534.749 182.908V149.227H539.434C549.779 166.554 565.2 171.713 579.742 173.563C594.285 175.412 621.417 170.74 623.37 152.05C627.078 122.166 597.115 114.67 567.152 101.529C545.583 92.184 531.528 79.0427 531.528 58.0165C531.528 42.539 538.555 31.3445 552.122 22.973C565.688 14.9908 583.549 10.8051 605.997 10.8051C614.39 10.8051 640.645 14.1148 651.478 15.9643V47.3088H648.16C634.984 21.1235 594.773 15.4776 579.742 33.7781C560.027 57.6272 592.821 73.4941 613.902 84.6886M823.839 84.2018V100.555C818.667 106.201 813.494 113.599 810.663 121.582C805.491 134.626 805.979 144.457 805.979 144.457C805.979 144.457 814.86 137.935 823.742 129.953V138.811C817.203 144.457 811.542 148.643 806.857 151.953C810.566 159.448 816.715 165.97 823.742 168.793V182.324C820.033 182.811 815.739 182.324 811.542 181.837C799.342 179.988 792.315 172.005 789.972 160.324C785.287 166.359 777.284 173.368 772.6 176.678C767.915 179.988 739.318 192.545 731.315 172.005C723.8 151.953 730.827 123.918 746.736 68.7243C762.156 13.5307 775.332 0 782.847 0C789.875 0 791.729 10.7078 786.556 20.0527C781.383 29.8844 760.79 66.7774 752.396 96.6618C744.003 126.546 740.684 165.873 757.569 167.722C772.99 169.085 787.532 157.404 789.484 156.041C788.508 146.696 789.972 135.502 794.657 123.334C800.318 106.98 812.03 92.9627 823.742 84.1045M253.955 192.35V179.306H254.931C288.212 179.306 295.727 142.413 295.727 101.237C295.727 60.0607 285.87 23.6544 254.052 22.681V9.63698H256.395C307.927 9.63698 338.866 42.831 338.866 97.0511C338.866 151.271 307.439 190.987 254.052 192.35M351.457 13.8227H414.701V18.9819L405.332 23.6544C403.477 24.6278 402.013 25.5039 402.013 27.3534V116.228C402.013 149.909 405.332 176.094 444.176 176.094C477.458 176.094 483.509 145.723 483.509 117.688V37.1851C483.021 33.4861 483.021 30.6631 483.021 27.3534C483.021 25.5039 481.655 24.5305 479.703 23.6544L470.333 19.4686V13.8227H518.645V18.9819L512.594 24.1411C511.227 25.1145 509.763 25.9906 509.763 28.3269C509.275 31.1498 509.275 33.9728 509.275 37.1851V115.741C509.275 142.9 503.615 159.643 492.879 172.784C481.655 185.828 464.282 192.447 440.37 192.447C416.458 192.447 389.716 186.412 378.98 174.731C367.756 163.05 362.095 144.847 362.095 120.024V37.1851C362.095 33.8754 362.095 31.1498 361.607 28.3269C361.607 25.9906 360.631 25.0172 358.777 24.1411L351.261 18.9819V13.8227H351.457ZM253.955 9.63698V22.681H252.491C219.697 22.681 211.694 57.7245 211.694 98.9007C211.694 140.077 221.551 178.333 253.857 179.306V192.35H251.027C199.006 192.35 169.043 157.307 169.043 102.6C169.043 47.8928 201.055 10.9998 253.955 9.63698ZM48.7023 188.164V183.005L58.0718 177.359C59.9262 175.996 61.3902 175.51 61.3902 173.66V29.3003H19.2271L5.17279 56.3617L0.487999 57.3351L0 14.3094L0.975997 13.336H164.944L165.432 14.3094V56.3617L160.259 57.3351L144.838 29.3003H102.675V173.758C102.675 175.607 104.041 176.581 105.993 177.457L117.217 183.103V188.262H48.7023V188.164Z" fill="white" fill-opacity="0.11"/>
<path d="M1523.92 118.953V93.7415C1539.83 90.0424 1550.66 80.2108 1549.69 58.6979C1549.2 39.5213 1539.34 29.3003 1523.92 25.5039V11.9732H1524.41C1553.98 11.9732 1581.6 16.159 1586.78 48.8663C1591.46 78.3613 1576.92 97.0512 1545.59 102.6C1565.3 114.768 1573.21 124.599 1581.21 144.165C1589.22 162.368 1595.76 180.669 1606.98 183.005L1607.47 188.164H1590.58C1568.13 188.164 1558.67 188.164 1549.79 172.297C1540.42 155.944 1535.73 136.28 1524.02 119.051M1695.99 84.8832C1721.27 97.5379 1746.64 112.431 1746.64 140.466C1746.64 156.82 1739.62 169.474 1725.56 177.846C1711.51 186.704 1692.28 190.89 1667.49 190.89C1651.58 190.89 1636.16 187.678 1616.93 182.908V149.227H1621.62C1632.36 166.554 1647.87 171.713 1661.93 173.563C1676.47 175.412 1703.6 170.74 1705.95 152.05C1709.26 122.166 1679.3 114.67 1649.73 101.529C1627.67 92.184 1614.1 79.0427 1614.1 58.0165C1614.1 42.539 1620.64 31.3445 1634.21 22.973C1647.78 14.9909 1665.54 10.8051 1688.09 10.8051C1696.48 10.8051 1723.22 14.1148 1733.57 15.9643V47.3088H1730.25C1717.07 21.1235 1677.25 15.4776 1662.32 33.7781C1642.21 57.6272 1675.01 73.4941 1696.09 84.6886M1524.12 11.7785V25.3092C1516.11 23.4597 1507.23 23.4597 1497.86 24.4331V95.4937C1507.23 95.9804 1516.11 95.4937 1524.12 93.6441V118.856C1523.14 117.883 1522.75 117.007 1521.78 116.033C1519.43 113.21 1517.58 107.662 1513.77 107.662H1497.86V173.563C1497.86 176.386 1499.23 177.749 1501.18 178.722L1515.24 182.908L1515.72 188.067H1437.94V182.908L1447.79 178.235C1449.65 177.262 1451.11 176.386 1451.11 174.05V24.6278C1451.11 22.2916 1450.14 20.8314 1447.79 20.4421L1437.94 17.1324V11.9732H1524.12V11.7785ZM1155.78 192.155V179.111H1156.75C1190.03 179.111 1197.55 142.218 1197.55 101.042C1197.55 59.8661 1188.18 23.4597 1155.87 22.4863V9.63698H1158.22C1209.75 9.63698 1240.69 42.831 1240.69 97.0511C1240.69 151.271 1209.26 190.987 1155.87 192.35M1251.13 13.8227H1314.86V18.9819L1305.49 23.6544C1303.64 24.6278 1302.18 25.5039 1302.18 27.3534C1301.69 30.6631 1301.69 33.3887 1301.69 37.1851V116.228C1301.69 149.909 1305.01 176.094 1343.85 176.094C1377.13 176.094 1383.18 145.723 1383.18 117.688V37.1851C1383.18 33.4861 1383.18 30.6631 1382.7 27.3534C1382.7 25.5039 1381.72 24.5305 1379.38 23.6544L1370.5 19.4686L1370.01 13.8227H1418.32V18.9819L1412.27 24.1411C1410.9 25.1145 1409.44 25.9906 1409.44 28.3269V37.1851C1409.44 40.8841 1408.95 44.6805 1408.95 48.8663V115.741C1408.95 142.9 1403.78 159.643 1392.55 172.784C1381.33 185.828 1363.96 192.447 1340.04 192.447C1316.13 192.447 1289.88 186.412 1278.65 174.731C1267.43 163.05 1261.77 144.847 1261.77 120.024V28.3269C1261.77 25.9906 1260.4 25.0172 1258.94 24.1411L1250.94 18.9819V13.8227H1251.13ZM1155.58 9.63698V22.681H1154.21C1121.42 22.681 1113.42 57.7245 1113.42 98.9007C1113.42 140.077 1123.28 178.333 1155.58 179.306V192.35H1153.24C1100.73 192.35 1070.77 157.307 1070.77 102.6C1070.77 47.8929 1102.68 10.9998 1155.58 9.63698ZM823.839 182.518V168.988C826.67 169.961 829.5 170.837 832.233 170.837C842.969 170.837 852.826 167.528 856.633 163.342C860.83 159.643 862.684 164.705 856.633 169.377C851.948 173.563 839.748 181.545 823.839 182.421M823.839 138.909V130.05C830.379 124.405 837.015 117.883 839.26 113.21C844.921 102.016 840.626 89.361 833.209 93.5468C829.891 94.9096 827.158 97.2458 823.839 100.556V84.2019C835.551 75.8303 847.263 72.5207 854.29 77.6799C869.321 88.3876 850.972 115.546 833.697 130.537C829.988 133.75 826.67 136.572 823.839 138.909ZM989.173 11.9732H1055.25V17.6191C1051.54 19.0793 1040.22 19.9554 1039.83 24.1411V161.103C1039.83 174.147 1038.46 183.589 1035.63 196.147C1029.97 222.819 1000.01 235.376 976.583 241.022L975.216 235.376C1003.81 223.208 1002.45 191.474 1002.45 164.802V24.6278C1002.45 19.9554 993.077 18.9819 989.271 17.6191V11.9732H989.173ZM922.122 91.4052C930.125 92.3787 930.125 102.6 925.441 110.095C922.61 114.281 926.417 115.741 931.101 111.458C934.81 108.148 942.325 100.263 939.495 85.2726C936.177 67.5562 901.529 78.2639 883.278 97.4405C864.538 116.617 869.223 131.997 880.447 138.13C891.671 144.165 909.532 144.652 919.389 144.165C928.759 143.679 933.444 154.484 918.023 163.829C903.481 173.174 886.596 171.811 881.033 166.652C875.372 161.979 871.175 153.608 867.954 161.979C864.636 170.448 872.151 178.333 883.375 180.182C894.599 182.518 922.22 179.696 933.542 161.979C944.765 143.776 934.029 132.971 917.145 132.095C900.26 130.732 881.033 126.936 888.06 110.582C895.575 94.2282 913.826 90.5292 922.22 91.4052M613.902 84.8832C639.181 97.5379 664.069 112.431 664.069 140.466C664.069 156.82 657.041 169.474 642.987 177.846C629.421 186.704 609.706 190.89 585.306 190.89C569.397 190.89 553.879 187.678 534.749 182.908V149.227H539.434C549.779 166.554 565.2 171.713 579.742 173.563C594.285 175.412 621.417 170.74 623.37 152.05C627.078 122.166 597.115 114.67 567.152 101.529C545.583 92.184 531.528 79.0427 531.528 58.0165C531.528 42.539 538.555 31.3445 552.122 22.973C565.688 14.9909 583.549 10.8051 605.997 10.8051C614.39 10.8051 640.645 14.1148 651.478 15.9643V47.3088H648.16C634.984 21.1235 594.773 15.4776 579.742 33.7781C560.027 57.6272 592.821 73.4941 613.902 84.6886M823.839 84.2019V100.556C818.667 106.201 813.494 113.599 810.663 121.582C805.491 134.626 805.979 144.457 805.979 144.457C805.979 144.457 814.86 137.935 823.742 129.953V138.811C817.203 144.457 811.542 148.643 806.857 151.953C810.566 159.448 816.715 165.97 823.742 168.793V182.324C820.033 182.811 815.739 182.324 811.542 181.837C799.342 179.988 792.315 172.005 789.972 160.324C785.287 166.36 777.284 173.368 772.6 176.678C767.915 179.988 739.318 192.545 731.315 172.005C723.8 151.953 730.827 123.918 746.736 68.7243C762.156 13.5307 775.332 0 782.847 0C789.875 0 791.729 10.7078 786.556 20.0527C781.383 29.8844 760.79 66.7774 752.396 96.6618C744.003 126.546 740.684 165.873 757.569 167.722C772.99 169.085 787.532 157.404 789.484 156.041C788.508 146.696 789.972 135.502 794.657 123.334C800.318 106.98 812.03 92.9627 823.742 84.1045M253.955 192.35V179.306H254.931C288.212 179.306 295.727 142.413 295.727 101.237C295.727 60.0607 285.87 23.6544 254.052 22.681V9.63698H256.395C307.927 9.63698 338.866 42.831 338.866 97.0511C338.866 151.271 307.439 190.987 254.052 192.35M351.457 13.8227H414.701V18.9819L405.332 23.6544C403.477 24.6278 402.013 25.5039 402.013 27.3534V116.228C402.013 149.909 405.332 176.094 444.176 176.094C477.458 176.094 483.509 145.723 483.509 117.688V37.1851C483.021 33.4861 483.021 30.6631 483.021 27.3534C483.021 25.5039 481.655 24.5305 479.703 23.6544L470.333 19.4686V13.8227H518.645V18.9819L512.594 24.1411C511.227 25.1145 509.763 25.9906 509.763 28.3269C509.275 31.1498 509.275 33.9728 509.275 37.1851V115.741C509.275 142.9 503.615 159.643 492.879 172.784C481.655 185.828 464.282 192.447 440.37 192.447C416.458 192.447 389.716 186.412 378.98 174.731C367.756 163.05 362.095 144.847 362.095 120.024V37.1851C362.095 33.8754 362.095 31.1498 361.607 28.3269C361.607 25.9906 360.631 25.0172 358.777 24.1411L351.261 18.9819V13.8227H351.457ZM253.955 9.63698V22.681H252.491C219.697 22.681 211.694 57.7245 211.694 98.9007C211.694 140.077 221.551 178.333 253.857 179.306V192.35H251.027C199.006 192.35 169.043 157.307 169.043 102.6C169.043 47.8929 201.055 10.9998 253.955 9.63698ZM48.7023 188.164V183.005L58.0718 177.359C59.9262 175.997 61.3902 175.51 61.3902 173.66V29.3003H19.2271L5.17279 56.3617L0.487999 57.3351L0 14.3094L0.975997 13.336H164.944L165.432 14.3094V56.3617L160.259 57.3351L144.838 29.3003H102.675V173.758C102.675 175.607 104.041 176.581 105.993 177.457L117.217 183.103V188.262H48.7023V188.164Z" fill="white"/>
</svg>
